<svg width="158" height="48" viewBox="0 0 158 48" fill="none" xmlns="http://www.w3.org/2000/svg">
<g clip-path="url(#clip0_4157_172719)">
<path d="M18.5459 14.5262H13.2678V26.4092C13.2678 28.4753 14.4753 28.9258 16.3362 28.9258C17.0402 28.9258 17.7915 28.8278 18.5459 28.8278V35.1211C16.9849 35.1732 15.4302 35.3724 13.8692 35.3724C6.58026 35.3724 4.71777 33.2573 4.71777 26.1578V14.5262H0.394592V8.98538H4.71777V4.30299L13.2678 1.08128V8.98538H18.5459V14.5262Z" fill="black"/>
<path d="M136.702 8.23133C131.918 8.23133 127.642 10.454 125.088 14.0566V8.98538H119.81V1.08128L111.26 4.30299V8.98538H106.935V11.4167C104.699 8.84311 100.688 8.23133 96.5826 8.23133C93.6152 8.23133 90.5989 8.73719 88.2882 10.0477C85.9759 11.404 84.3675 13.6188 84.216 17.0428H92.2089C92.6114 14.8313 94.1203 13.7705 96.4815 13.7705C98.2414 13.7705 100.606 14.5262 100.606 16.4879C100.606 18.0988 99.8009 18.6062 98.3425 18.9066C93.3879 19.9167 86.1258 19.6306 83.8624 24.4616V19.5105C83.8624 14.5262 82.958 8.23133 74.6684 8.23133C71.1486 8.23133 68.5774 9.69359 66.5176 12.4616C65.1097 9.2889 62.196 8.23133 58.9288 8.23133C55.6615 8.23133 52.9956 9.94652 51.4409 12.5644H51.3336V8.98696H43.0361V35.1226H51.5877V22.3828C51.5877 17.0444 52.8946 15.2818 55.9646 15.2818C58.2753 15.2818 59.1797 17.1946 59.1797 20.2693V35.1226H67.7266V22.3322C67.7266 18.102 68.0802 15.2818 71.7452 15.2818C73.9628 15.2818 75.3155 16.9448 75.3155 19.7666V35.1226H83.8624V31.5042C85.2056 34.4682 88.3355 35.8767 92.0589 35.8767C95.1762 35.8767 98.4451 34.9709 100.653 32.6566C100.754 33.5102 100.855 34.3148 101.158 35.1226H109.753C108.753 33.0581 108.753 30.641 108.753 28.4263V16.9986C108.753 16.0864 108.66 15.2676 108.49 14.5293H111.261V26.161C111.261 33.2604 113.124 35.3756 120.413 35.3756C121.974 35.3756 123.53 35.178 125.09 35.1242V30.4829C127.557 33.9607 131.719 35.8783 136.902 35.8783C142.736 35.8783 148.319 33.2604 149.877 27.2201H141.88C141.074 29.1329 139.065 30.0909 137.005 30.0909C133.382 30.0909 131.324 27.726 131.171 24.1518H150.331C150.729 15.2849 146.057 8.23765 136.703 8.23765L136.702 8.23133ZM95.2757 30.592C93.3658 30.592 91.7085 29.7321 91.7085 27.6169C91.7085 25.5018 93.3153 24.7509 95.2267 24.294C97.0876 23.7913 99.3037 23.6412 100.506 22.8855C100.705 28.2745 99.351 30.592 95.2757 30.592ZM122.875 28.9258C121.014 28.9258 119.812 28.4753 119.812 26.4092V14.5262H124.787C123.424 16.6318 122.621 19.1595 122.621 21.9766C122.621 24.6213 123.156 26.9277 124.124 28.8705C123.698 28.8974 123.278 28.9274 122.875 28.9274V28.9258ZM131.17 19.3603C131.673 16.1876 133.684 14.0203 136.702 14.0203C139.563 14.0203 141.628 16.4405 141.781 19.3603H131.17Z" fill="black"/>
<path d="M157.443 11.7234C157.443 13.6614 155.887 15.1996 153.909 15.1996C151.932 15.1996 150.353 13.6614 150.353 11.7234C150.353 9.78527 151.932 8.26768 153.93 8.26768C155.928 8.26768 157.443 9.78527 157.443 11.7234ZM151.235 11.7234C151.235 13.2615 152.392 14.4835 153.928 14.4835C155.421 14.504 156.559 13.2615 156.559 11.7439C156.559 10.2263 155.423 8.96166 153.887 8.96166C152.351 8.96166 151.235 10.2058 151.235 11.7218V11.7234ZM153.362 13.5144H152.561V10.0588C152.877 10.0161 153.319 9.95284 153.886 9.95284C154.539 9.95284 154.833 10.0588 155.065 10.2279C155.275 10.3749 155.421 10.6278 155.421 10.9646C155.421 11.3866 155.106 11.6601 154.706 11.7866V11.8293C155.043 11.9352 155.211 12.2087 155.316 12.6718C155.42 13.1983 155.505 13.388 155.568 13.5144H154.727C154.623 13.388 154.558 13.0939 154.452 12.6718C154.389 12.313 154.179 12.1454 153.737 12.1454H153.36V13.516L153.362 13.5144ZM153.382 11.5763H153.761C154.203 11.5763 154.56 11.4293 154.56 11.0705C154.56 10.7543 154.329 10.5441 153.824 10.5441C153.614 10.5441 153.467 10.5646 153.382 10.5867V11.5763Z" fill="black"/>
<path d="M44.6271 21.5987C44.6271 13.4148 38.001 6.78014 29.8266 6.78014C21.6522 6.78014 15.0325 13.4148 15.0325 21.5987C15.0325 29.7826 21.6585 36.4173 29.8266 36.4173C37.9947 36.4173 44.6271 29.7811 44.6271 21.5987Z" fill="black"/>
<path d="M30.8147 18.1462C30.8147 18.1462 27.6753 16.4974 26.9745 15.4241C28.5134 16.0643 30.72 16.303 31.6244 15.971C32.5272 15.6375 31.9669 12.2182 31.1635 11.4783C32.1342 11.717 33.801 14.4661 33.9651 15.3387C34.7717 14.5704 36.2096 13.9681 38.353 13.437C35.7692 15.4762 35.0684 16.6476 35.1994 17.2831C36.8046 17.4554 39.2764 19.4014 39.2764 20.1728C37.4407 18.6268 34.9942 19.1248 34.5255 19.4599C34.7559 20.9348 34.4828 23.5131 34.2824 24.0158C33.55 22.2058 33.1175 20.8621 32.3157 19.9563C31.6875 19.2465 29.3342 21.9291 29.1621 22.3986C28.9664 21.7948 29.874 18.9809 30.8115 18.1462H30.8147Z" fill="white"/>
<path d="M53.4202 46.4887V41.6072H51.6003V40.9543H55.9803V41.6072H54.1526V46.4887H53.4218H53.4202Z" fill="black"/>
<path d="M57.0947 46.4887L59.216 40.9559H60.0036L62.2654 46.4887H61.432L60.7881 44.8131H58.4773L57.8712 46.4887H57.0947ZM58.6888 44.2171H60.5624L59.9863 42.6853C59.8111 42.2205 59.68 41.8364 59.5948 41.5376C59.5238 41.8917 59.4259 42.2442 59.2965 42.5936L58.6904 44.2171H58.6888Z" fill="black"/>
<path d="M68.5805 45.8959C68.9199 46.1299 69.2324 46.3006 69.5181 46.4097L69.3034 46.9203C68.9057 46.7764 68.5111 46.5504 68.1165 46.2405C67.7077 46.4698 67.2547 46.5836 66.7591 46.5836C66.2635 46.5836 65.8057 46.4634 65.3985 46.2216C64.9913 45.9797 64.6788 45.6398 64.4578 45.2019C64.2384 44.7641 64.1279 44.2708 64.1279 43.7223C64.1279 43.1737 64.2384 42.679 64.4594 42.2316C64.6804 41.7842 64.9945 41.4428 65.4033 41.2088C65.8121 40.9748 66.2682 40.8578 66.7733 40.8578C67.2784 40.8578 67.7424 40.9796 68.1528 41.2214C68.5616 41.4649 68.8741 41.8048 69.0888 42.2411C69.3034 42.6774 69.4108 43.1706 69.4108 43.7191C69.4108 44.1744 69.3413 44.5838 69.204 44.9474C69.0667 45.311 68.8567 45.6272 68.579 45.8959H68.5805ZM66.9706 44.9601C67.392 45.0786 67.7408 45.2541 68.0139 45.4881C68.4432 45.096 68.6579 44.5048 68.6579 43.7176C68.6579 43.2702 68.5821 42.8781 68.4306 42.543C68.2791 42.2079 68.0565 41.9486 67.7629 41.7637C67.4709 41.5787 67.141 41.487 66.778 41.487C66.2335 41.487 65.7805 41.6736 65.4206 42.0466C65.0608 42.4197 64.8824 42.9793 64.8824 43.7207C64.8824 44.4621 65.0608 44.9933 65.4159 45.3774C65.771 45.7615 66.2256 45.9544 66.778 45.9544C67.0385 45.9544 67.2863 45.9054 67.5167 45.8074C67.2878 45.6588 67.0463 45.5529 66.7938 45.4897L66.9706 44.9569V44.9601Z" fill="black"/>
<path d="M75.5664 40.9559H76.2972V44.1523C76.2972 44.7087 76.2341 45.1498 76.1094 45.477C75.9831 45.8042 75.7574 46.0698 75.4291 46.2753C75.1008 46.4808 74.6715 46.5836 74.138 46.5836C73.6045 46.5836 73.1973 46.4935 72.8674 46.3148C72.5375 46.1362 72.3039 45.877 72.1619 45.5387C72.0214 45.2004 71.9504 44.7372 71.9504 44.1507V40.9543H72.6812V44.1475C72.6812 44.6281 72.7254 44.9822 72.8153 45.2098C72.9053 45.4375 73.0584 45.613 73.2746 45.7363C73.4909 45.8596 73.7576 45.9212 74.0717 45.9212C74.6099 45.9212 74.9919 45.7995 75.2208 45.5545C75.4496 45.311 75.5633 44.8415 75.5633 44.146V40.9527L75.5664 40.9559Z" fill="black"/>
<path d="M79.0736 46.4887V40.9559H83.0685V41.6087H79.8044V43.3034H82.8617V43.9531H79.8044V45.8358H83.1963V46.4887H79.0736Z" fill="black"/>
<path d="M85.7612 46.4887V40.9559H88.2108C88.7033 40.9559 89.0773 41.0049 89.3346 41.1045C89.5903 41.204 89.7955 41.3795 89.9486 41.6309C90.1017 41.8822 90.1791 42.1604 90.1791 42.4655C90.1791 42.8576 90.0528 43.1896 89.7987 43.4583C89.5445 43.727 89.1531 43.8993 88.6228 43.9721C88.8169 44.0653 88.9637 44.157 89.0631 44.2487C89.2762 44.4447 89.4783 44.6898 89.6692 44.9854L90.6305 46.4919H89.7103L88.9795 45.3411C88.7664 45.0091 88.5896 44.7546 88.4523 44.5791C88.3134 44.4036 88.1903 44.2803 88.0814 44.2092C87.9725 44.138 87.8604 44.089 87.7484 44.0622C87.6663 44.0448 87.5305 44.0353 87.3411 44.0353H86.4935V46.4935H85.7627L85.7612 46.4887ZM86.492 43.3966H88.064C88.3986 43.3966 88.6591 43.3619 88.8485 43.2923C89.0363 43.2228 89.1799 43.1121 89.2778 42.9603C89.3757 42.8086 89.4246 42.6426 89.4246 42.464C89.4246 42.2015 89.3299 41.9866 89.1405 41.819C88.9511 41.6498 88.6512 41.5661 88.2424 41.5661H86.4935V43.3966H86.492Z" fill="black"/>
<path d="M92.9933 46.4887V40.9559H93.7241V46.4887H92.9933Z" fill="black"/>
<path d="M95.9496 46.4887L98.071 40.9559H98.8586L101.12 46.4887H100.287L99.643 44.8131H97.3323L96.7262 46.4887H95.9496ZM97.5438 44.2171H99.4173L98.8412 42.6853C98.666 42.2205 98.535 41.8364 98.4498 41.5376C98.3788 41.8917 98.2793 42.2442 98.1515 42.5936L97.5454 44.2171H97.5438Z" fill="black"/>
</g>
<defs>
<clipPath id="clip0_4157_172719">
<rect width="157.838" height="48" fill="white"/>
</clipPath>
</defs>
</svg>
